<svg width="560" height="640" viewBox="0 0 560 640" fill="none" xmlns="http://www.w3.org/2000/svg">
<g filter="url(#filter0_b_11_29)">
<rect width="560" height="640" fill="black" fill-opacity="0.3"/>
</g>
<rect x="105" y="447" width="230" height="50" rx="25" fill="url(#paint0_linear_11_29)"/>
<path d="M162.894 477.168C161.877 477.168 160.957 476.949 160.136 476.51C159.324 476.071 158.685 475.469 158.218 474.704C157.761 473.929 157.532 473.061 157.532 472.1C157.532 471.139 157.761 470.275 158.218 469.51C158.685 468.735 159.324 468.129 160.136 467.69C160.957 467.251 161.877 467.032 162.894 467.032C163.911 467.032 164.826 467.251 165.638 467.69C166.45 468.129 167.089 468.735 167.556 469.51C168.023 470.275 168.256 471.139 168.256 472.1C168.256 473.061 168.023 473.929 167.556 474.704C167.089 475.469 166.45 476.071 165.638 476.51C164.826 476.949 163.911 477.168 162.894 477.168ZM162.894 475.236C163.473 475.236 163.995 475.105 164.462 474.844C164.929 474.573 165.293 474.2 165.554 473.724C165.825 473.248 165.96 472.707 165.96 472.1C165.96 471.493 165.825 470.952 165.554 470.476C165.293 470 164.929 469.631 164.462 469.37C163.995 469.099 163.473 468.964 162.894 468.964C162.315 468.964 161.793 469.099 161.326 469.37C160.859 469.631 160.491 470 160.22 470.476C159.959 470.952 159.828 471.493 159.828 472.1C159.828 472.707 159.959 473.248 160.22 473.724C160.491 474.2 160.859 474.573 161.326 474.844C161.793 475.105 162.315 475.236 162.894 475.236ZM173.419 477.112C172.616 477.112 171.893 476.949 171.249 476.622C170.614 476.286 170.115 475.824 169.751 475.236C169.396 474.648 169.219 473.981 169.219 473.234C169.219 472.487 169.396 471.82 169.751 471.232C170.115 470.644 170.614 470.187 171.249 469.86C171.893 469.524 172.616 469.356 173.419 469.356C174.212 469.356 174.903 469.524 175.491 469.86C176.088 470.187 176.522 470.658 176.793 471.274L175.099 472.184C174.707 471.493 174.142 471.148 173.405 471.148C172.836 471.148 172.364 471.335 171.991 471.708C171.618 472.081 171.431 472.59 171.431 473.234C171.431 473.878 171.618 474.387 171.991 474.76C172.364 475.133 172.836 475.32 173.405 475.32C174.152 475.32 174.716 474.975 175.099 474.284L176.793 475.208C176.522 475.805 176.088 476.272 175.491 476.608C174.903 476.944 174.212 477.112 173.419 477.112ZM184.421 471.26H181.873V477H179.703V471.26H177.155V469.468H184.421V471.26ZM188.511 469.356C189.678 469.356 190.574 469.636 191.199 470.196C191.824 470.747 192.137 471.582 192.137 472.702V477H190.093V476.062C189.682 476.762 188.917 477.112 187.797 477.112C187.218 477.112 186.714 477.014 186.285 476.818C185.865 476.622 185.543 476.351 185.319 476.006C185.095 475.661 184.983 475.269 184.983 474.83C184.983 474.13 185.244 473.579 185.767 473.178C186.299 472.777 187.116 472.576 188.217 472.576H189.953C189.953 472.1 189.808 471.736 189.519 471.484C189.23 471.223 188.796 471.092 188.217 471.092C187.816 471.092 187.419 471.157 187.027 471.288C186.644 471.409 186.318 471.577 186.047 471.792L185.263 470.266C185.674 469.977 186.164 469.753 186.733 469.594C187.312 469.435 187.904 469.356 188.511 469.356ZM188.343 475.642C188.716 475.642 189.048 475.558 189.337 475.39C189.626 475.213 189.832 474.956 189.953 474.62V473.85H188.455C187.559 473.85 187.111 474.144 187.111 474.732C187.111 475.012 187.218 475.236 187.433 475.404C187.657 475.563 187.96 475.642 188.343 475.642ZM199.788 473.066C200.675 473.365 201.118 473.962 201.118 474.858C201.118 475.539 200.862 476.067 200.348 476.44C199.835 476.813 199.07 477 198.052 477H194.034V469.468H197.884C198.827 469.468 199.564 469.641 200.096 469.986C200.628 470.322 200.894 470.798 200.894 471.414C200.894 471.787 200.796 472.119 200.6 472.408C200.414 472.688 200.143 472.907 199.788 473.066ZM196.036 472.562H197.688C198.454 472.562 198.836 472.291 198.836 471.75C198.836 471.218 198.454 470.952 197.688 470.952H196.036V472.562ZM197.87 475.516C198.673 475.516 199.074 475.241 199.074 474.69C199.074 474.401 198.981 474.191 198.794 474.06C198.608 473.92 198.314 473.85 197.912 473.85H196.036V475.516H197.87ZM202.743 469.468H204.913V473.948L208.581 469.468H210.583V477H208.413V472.52L204.759 477H202.743V469.468ZM219.011 471.26H216.463V477H214.293V471.26H211.745V469.468H219.011V471.26ZM224.249 471.876C225.229 471.885 225.98 472.109 226.503 472.548C227.026 472.977 227.287 473.589 227.287 474.382C227.287 475.213 226.993 475.861 226.405 476.328C225.826 476.785 225.01 477.014 223.955 477.014L220.175 477V469.468H222.345V471.876H224.249ZM223.759 475.46C224.179 475.469 224.501 475.381 224.725 475.194C224.949 475.007 225.061 474.727 225.061 474.354C225.061 473.99 224.949 473.724 224.725 473.556C224.51 473.388 224.188 473.299 223.759 473.29L222.345 473.276V475.46H223.759ZM237.502 473.08C237.95 473.22 238.296 473.435 238.538 473.724C238.79 474.013 238.916 474.359 238.916 474.76C238.916 475.236 238.753 475.656 238.426 476.02C238.1 476.375 237.652 476.65 237.082 476.846C236.513 477.042 235.869 477.14 235.15 477.14C234.562 477.14 233.984 477.079 233.414 476.958C232.845 476.837 232.318 476.655 231.832 476.412L232.42 474.886C233.214 475.269 234.091 475.46 235.052 475.46C235.566 475.46 235.967 475.385 236.256 475.236C236.555 475.077 236.704 474.858 236.704 474.578C236.704 474.335 236.602 474.153 236.396 474.032C236.191 473.901 235.892 473.836 235.5 473.836H233.96V472.478H235.304C235.687 472.478 235.981 472.417 236.186 472.296C236.392 472.175 236.494 471.997 236.494 471.764C236.494 471.521 236.364 471.335 236.102 471.204C235.85 471.073 235.486 471.008 235.01 471.008C234.282 471.008 233.489 471.181 232.63 471.526L232.098 470.014C233.144 469.557 234.161 469.328 235.15 469.328C235.832 469.328 236.438 469.412 236.97 469.58C237.512 469.748 237.936 469.995 238.244 470.322C238.552 470.639 238.706 471.013 238.706 471.442C238.706 471.797 238.599 472.119 238.384 472.408C238.17 472.688 237.876 472.912 237.502 473.08ZM243.431 469.356C244.598 469.356 245.494 469.636 246.119 470.196C246.744 470.747 247.057 471.582 247.057 472.702V477H245.013V476.062C244.602 476.762 243.837 477.112 242.717 477.112C242.138 477.112 241.634 477.014 241.205 476.818C240.785 476.622 240.463 476.351 240.239 476.006C240.015 475.661 239.903 475.269 239.903 474.83C239.903 474.13 240.164 473.579 240.687 473.178C241.219 472.777 242.036 472.576 243.137 472.576H244.873C244.873 472.1 244.728 471.736 244.439 471.484C244.15 471.223 243.716 471.092 243.137 471.092C242.736 471.092 242.339 471.157 241.947 471.288C241.564 471.409 241.238 471.577 240.967 471.792L240.183 470.266C240.594 469.977 241.084 469.753 241.653 469.594C242.232 469.435 242.824 469.356 243.431 469.356ZM243.263 475.642C243.636 475.642 243.968 475.558 244.257 475.39C244.546 475.213 244.752 474.956 244.873 474.62V473.85H243.375C242.479 473.85 242.031 474.144 242.031 474.732C242.031 475.012 242.138 475.236 242.353 475.404C242.577 475.563 242.88 475.642 243.263 475.642ZM255.646 469.468V477H253.7V474.844H252.09L250.662 477H248.338L250.06 474.536C249.538 474.331 249.136 474.037 248.856 473.654C248.586 473.262 248.45 472.791 248.45 472.24C248.45 471.353 248.768 470.672 249.402 470.196C250.046 469.711 250.928 469.468 252.048 469.468H255.646ZM252.09 471.246C251.624 471.246 251.269 471.33 251.026 471.498C250.793 471.666 250.676 471.937 250.676 472.31C250.676 472.683 250.788 472.959 251.012 473.136C251.246 473.304 251.596 473.388 252.062 473.388H253.7V471.246H252.09ZM263.499 473.066C264.386 473.365 264.829 473.962 264.829 474.858C264.829 475.539 264.573 476.067 264.059 476.44C263.546 476.813 262.781 477 261.763 477H257.745V469.468H261.595C262.538 469.468 263.275 469.641 263.807 469.986C264.339 470.322 264.605 470.798 264.605 471.414C264.605 471.787 264.507 472.119 264.311 472.408C264.125 472.688 263.854 472.907 263.499 473.066ZM259.747 472.562H261.399C262.165 472.562 262.547 472.291 262.547 471.75C262.547 471.218 262.165 470.952 261.399 470.952H259.747V472.562ZM261.581 475.516C262.384 475.516 262.785 475.241 262.785 474.69C262.785 474.401 262.692 474.191 262.505 474.06C262.319 473.92 262.025 473.85 261.623 473.85H259.747V475.516H261.581ZM269.772 474.144H268.638V477H266.454V469.468H268.638V472.394H269.814L271.858 469.468H274.182L271.55 473.08L274.364 477H271.788L269.772 474.144ZM282.559 469.468L279.157 477.462C278.812 478.33 278.382 478.941 277.869 479.296C277.365 479.651 276.754 479.828 276.035 479.828C275.643 479.828 275.256 479.767 274.873 479.646C274.49 479.525 274.178 479.357 273.935 479.142L274.733 477.588C274.901 477.737 275.092 477.854 275.307 477.938C275.531 478.022 275.75 478.064 275.965 478.064C276.264 478.064 276.506 477.989 276.693 477.84C276.88 477.7 277.048 477.462 277.197 477.126L277.225 477.056L273.963 469.468H276.217L278.331 474.578L280.459 469.468H282.559Z" fill="white"/>
<line x1="105" y1="363.5" x2="465" y2="363.5" stroke="white"/>
<path d="M113.544 352.6V361H112.368V353.644H107.496V361H106.308V352.6H113.544ZM118.695 361.072C118.063 361.072 117.495 360.932 116.991 360.652C116.487 360.372 116.091 359.988 115.803 359.5C115.523 359.004 115.383 358.444 115.383 357.82C115.383 357.196 115.523 356.64 115.803 356.152C116.091 355.656 116.487 355.272 116.991 355C117.495 354.72 118.063 354.58 118.695 354.58C119.327 354.58 119.891 354.72 120.387 355C120.891 355.272 121.283 355.656 121.563 356.152C121.851 356.64 121.995 357.196 121.995 357.82C121.995 358.444 121.851 359.004 121.563 359.5C121.283 359.988 120.891 360.372 120.387 360.652C119.891 360.932 119.327 361.072 118.695 361.072ZM118.695 360.064C119.103 360.064 119.467 359.972 119.787 359.788C120.115 359.596 120.371 359.332 120.555 358.996C120.739 358.652 120.831 358.26 120.831 357.82C120.831 357.38 120.739 356.992 120.555 356.656C120.371 356.312 120.115 356.048 119.787 355.864C119.467 355.68 119.103 355.588 118.695 355.588C118.287 355.588 117.919 355.68 117.591 355.864C117.271 356.048 117.015 356.312 116.823 356.656C116.639 356.992 116.547 357.38 116.547 357.82C116.547 358.26 116.639 358.652 116.823 358.996C117.015 359.332 117.271 359.596 117.591 359.788C117.919 359.972 118.287 360.064 118.695 360.064ZM128.735 354.64V361H127.583V358.432C126.895 358.752 126.211 358.912 125.531 358.912C124.739 358.912 124.127 358.728 123.695 358.36C123.263 357.992 123.047 357.44 123.047 356.704V354.64H124.199V356.632C124.199 357.072 124.335 357.404 124.607 357.628C124.887 357.852 125.275 357.964 125.771 357.964C126.331 357.964 126.935 357.824 127.583 357.544V354.64H128.735ZM135.711 355.648H133.383V361H132.231V355.648H129.903V354.64H135.711V355.648ZM139.157 354.58C140.037 354.58 140.709 354.796 141.173 355.228C141.645 355.66 141.881 356.304 141.881 357.16V361H140.789V360.16C140.597 360.456 140.321 360.684 139.961 360.844C139.609 360.996 139.189 361.072 138.701 361.072C137.989 361.072 137.417 360.9 136.985 360.556C136.561 360.212 136.349 359.76 136.349 359.2C136.349 358.64 136.553 358.192 136.961 357.856C137.369 357.512 138.017 357.34 138.905 357.34H140.729V357.112C140.729 356.616 140.585 356.236 140.297 355.972C140.009 355.708 139.585 355.576 139.025 355.576C138.649 355.576 138.281 355.64 137.921 355.768C137.561 355.888 137.257 356.052 137.009 356.26L136.529 355.396C136.857 355.132 137.249 354.932 137.705 354.796C138.161 354.652 138.645 354.58 139.157 354.58ZM138.893 360.184C139.333 360.184 139.713 360.088 140.033 359.896C140.353 359.696 140.585 359.416 140.729 359.056V358.168H138.953C137.977 358.168 137.489 358.496 137.489 359.152C137.489 359.472 137.613 359.724 137.861 359.908C138.109 360.092 138.453 360.184 138.893 360.184Z" fill="white"/>
<line x1="105" y1="303.5" x2="465" y2="303.5" stroke="white"/>
<path d="M112.08 293.644H109.2V301H108.024V293.644H105.156V292.6H112.08V293.644ZM118.438 297.856C118.438 297.944 118.43 298.06 118.414 298.204H113.254C113.326 298.764 113.57 299.216 113.986 299.56C114.41 299.896 114.934 300.064 115.558 300.064C116.318 300.064 116.93 299.808 117.394 299.296L118.03 300.04C117.742 300.376 117.382 300.632 116.95 300.808C116.526 300.984 116.05 301.072 115.522 301.072C114.85 301.072 114.254 300.936 113.734 300.664C113.214 300.384 112.81 299.996 112.522 299.5C112.242 299.004 112.102 298.444 112.102 297.82C112.102 297.204 112.238 296.648 112.51 296.152C112.79 295.656 113.17 295.272 113.65 295C114.138 294.72 114.686 294.58 115.294 294.58C115.902 294.58 116.442 294.72 116.914 295C117.394 295.272 117.766 295.656 118.03 296.152C118.302 296.648 118.438 297.216 118.438 297.856ZM115.294 295.552C114.742 295.552 114.278 295.72 113.902 296.056C113.534 296.392 113.318 296.832 113.254 297.376H117.334C117.27 296.84 117.05 296.404 116.674 296.068C116.306 295.724 115.846 295.552 115.294 295.552ZM125.58 294.64V301H124.428V295.648H121.692L121.62 297.064C121.58 297.92 121.504 298.636 121.392 299.212C121.28 299.78 121.096 300.236 120.84 300.58C120.584 300.924 120.228 301.096 119.772 301.096C119.564 301.096 119.328 301.06 119.064 300.988L119.136 300.016C119.24 300.04 119.336 300.052 119.424 300.052C119.744 300.052 119.984 299.912 120.144 299.632C120.304 299.352 120.408 299.02 120.456 298.636C120.504 298.252 120.548 297.704 120.588 296.992L120.696 294.64H125.58ZM133.555 297.856C133.555 297.944 133.547 298.06 133.531 298.204H128.371C128.443 298.764 128.687 299.216 129.103 299.56C129.527 299.896 130.051 300.064 130.675 300.064C131.435 300.064 132.047 299.808 132.511 299.296L133.147 300.04C132.859 300.376 132.499 300.632 132.067 300.808C131.643 300.984 131.167 301.072 130.639 301.072C129.967 301.072 129.371 300.936 128.851 300.664C128.331 300.384 127.927 299.996 127.639 299.5C127.359 299.004 127.219 298.444 127.219 297.82C127.219 297.204 127.355 296.648 127.627 296.152C127.907 295.656 128.287 295.272 128.767 295C129.255 294.72 129.803 294.58 130.411 294.58C131.019 294.58 131.559 294.72 132.031 295C132.511 295.272 132.883 295.656 133.147 296.152C133.419 296.648 133.555 297.216 133.555 297.856ZM130.411 295.552C129.859 295.552 129.395 295.72 129.019 296.056C128.651 296.392 128.435 296.832 128.371 297.376H132.451C132.387 296.84 132.167 296.404 131.791 296.068C131.423 295.724 130.963 295.552 130.411 295.552ZM143.371 297.808C143.371 298.792 143.043 299.568 142.387 300.136C141.731 300.704 140.807 301.02 139.615 301.084V303.328H138.487V301.084C137.295 301.02 136.371 300.708 135.715 300.148C135.067 299.58 134.743 298.8 134.743 297.808C134.743 296.824 135.067 296.056 135.715 295.504C136.363 294.952 137.287 294.644 138.487 294.58V292.096H139.615V294.58C140.807 294.644 141.731 294.956 142.387 295.516C143.043 296.068 143.371 296.832 143.371 297.808ZM135.883 297.808C135.883 298.488 136.099 299.02 136.531 299.404C136.971 299.788 137.623 300.008 138.487 300.064V295.6C137.615 295.656 136.963 295.872 136.531 296.248C136.099 296.624 135.883 297.144 135.883 297.808ZM139.615 300.076C141.359 299.94 142.231 299.184 142.231 297.808C142.231 297.136 142.011 296.616 141.571 296.248C141.131 295.872 140.479 295.656 139.615 295.6V300.076ZM147.723 301.072C147.091 301.072 146.523 300.932 146.019 300.652C145.515 300.372 145.119 299.988 144.831 299.5C144.551 299.004 144.411 298.444 144.411 297.82C144.411 297.196 144.551 296.64 144.831 296.152C145.119 295.656 145.515 295.272 146.019 295C146.523 294.72 147.091 294.58 147.723 294.58C148.355 294.58 148.919 294.72 149.415 295C149.919 295.272 150.311 295.656 150.591 296.152C150.879 296.64 151.023 297.196 151.023 297.82C151.023 298.444 150.879 299.004 150.591 299.5C150.311 299.988 149.919 300.372 149.415 300.652C148.919 300.932 148.355 301.072 147.723 301.072ZM147.723 300.064C148.131 300.064 148.495 299.972 148.815 299.788C149.143 299.596 149.399 299.332 149.583 298.996C149.767 298.652 149.859 298.26 149.859 297.82C149.859 297.38 149.767 296.992 149.583 296.656C149.399 296.312 149.143 296.048 148.815 295.864C148.495 295.68 148.131 295.588 147.723 295.588C147.315 295.588 146.947 295.68 146.619 295.864C146.299 296.048 146.043 296.312 145.851 296.656C145.667 296.992 145.575 297.38 145.575 297.82C145.575 298.26 145.667 298.652 145.851 298.996C146.043 299.332 146.299 299.596 146.619 299.788C146.947 299.972 147.315 300.064 147.723 300.064ZM152.686 294.64H153.838V297.34H157.462V294.64H158.614V301H157.462V298.336H153.838V301H152.686V294.64Z" fill="white"/>
<line x1="105" y1="243.5" x2="465" y2="243.5" stroke="white"/>
<path d="M106.308 232.6H107.496V239.08L112.464 232.6H113.568V241H112.392V234.532L107.412 241H106.308V232.6ZM123.327 234.64V241H122.283V236.356L119.907 240.28H119.403L117.051 236.344V241H115.995V234.64H117.183L119.679 238.936L122.247 234.64H123.327ZM130.669 234.64V241H129.637V238.984H127.789H127.657L126.265 241H125.029L126.577 238.828C126.097 238.684 125.729 238.448 125.473 238.12C125.217 237.784 125.089 237.368 125.089 236.872C125.089 236.144 125.337 235.592 125.833 235.216C126.329 234.832 127.013 234.64 127.885 234.64H130.669ZM126.265 236.908C126.265 237.332 126.397 237.648 126.661 237.856C126.933 238.056 127.337 238.156 127.873 238.156H129.637V235.648H127.921C126.817 235.648 126.265 236.068 126.265 236.908Z" fill="white"/>
<path d="M110.936 181.112C109.947 181.112 109.055 180.897 108.262 180.468C107.469 180.029 106.843 179.427 106.386 178.662C105.938 177.897 105.714 177.043 105.714 176.1C105.714 175.157 105.938 174.303 106.386 173.538C106.843 172.773 107.469 172.175 108.262 171.746C109.055 171.307 109.947 171.088 110.936 171.088C111.916 171.088 112.803 171.307 113.596 171.746C114.389 172.175 115.01 172.773 115.458 173.538C115.906 174.294 116.13 175.148 116.13 176.1C116.13 177.052 115.906 177.911 115.458 178.676C115.01 179.432 114.389 180.029 113.596 180.468C112.803 180.897 111.916 181.112 110.936 181.112ZM110.936 179.866C111.655 179.866 112.299 179.703 112.868 179.376C113.447 179.049 113.899 178.601 114.226 178.032C114.562 177.453 114.73 176.809 114.73 176.1C114.73 175.391 114.562 174.751 114.226 174.182C113.899 173.603 113.447 173.151 112.868 172.824C112.299 172.497 111.655 172.334 110.936 172.334C110.217 172.334 109.564 172.497 108.976 172.824C108.397 173.151 107.94 173.603 107.604 174.182C107.277 174.751 107.114 175.391 107.114 176.1C107.114 176.809 107.277 177.453 107.604 178.032C107.94 178.601 108.397 179.049 108.976 179.376C109.564 179.703 110.217 179.866 110.936 179.866ZM121.403 181.084C120.647 181.084 119.971 180.921 119.373 180.594C118.785 180.267 118.323 179.819 117.987 179.25C117.651 178.671 117.483 178.018 117.483 177.29C117.483 176.562 117.651 175.913 117.987 175.344C118.323 174.765 118.785 174.317 119.373 174C119.971 173.673 120.647 173.51 121.403 173.51C122.075 173.51 122.673 173.645 123.195 173.916C123.727 174.187 124.138 174.579 124.427 175.092L123.405 175.75C123.172 175.395 122.883 175.129 122.537 174.952C122.192 174.775 121.809 174.686 121.389 174.686C120.904 174.686 120.465 174.793 120.073 175.008C119.691 175.223 119.387 175.531 119.163 175.932C118.949 176.324 118.841 176.777 118.841 177.29C118.841 177.813 118.949 178.275 119.163 178.676C119.387 179.068 119.691 179.371 120.073 179.586C120.465 179.801 120.904 179.908 121.389 179.908C121.809 179.908 122.192 179.819 122.537 179.642C122.883 179.465 123.172 179.199 123.405 178.844L124.427 179.488C124.138 180.001 123.727 180.398 123.195 180.678C122.673 180.949 122.075 181.084 121.403 181.084ZM131.602 174.756H128.886V181H127.542V174.756H124.826V173.58H131.602V174.756ZM135.622 173.51C136.648 173.51 137.432 173.762 137.974 174.266C138.524 174.77 138.8 175.521 138.8 176.52V181H137.526V180.02C137.302 180.365 136.98 180.631 136.56 180.818C136.149 180.995 135.659 181.084 135.09 181.084C134.259 181.084 133.592 180.883 133.088 180.482C132.593 180.081 132.346 179.553 132.346 178.9C132.346 178.247 132.584 177.724 133.06 177.332C133.536 176.931 134.292 176.73 135.328 176.73H137.456V176.464C137.456 175.885 137.288 175.442 136.952 175.134C136.616 174.826 136.121 174.672 135.468 174.672C135.029 174.672 134.6 174.747 134.18 174.896C133.76 175.036 133.405 175.227 133.116 175.47L132.556 174.462C132.938 174.154 133.396 173.921 133.928 173.762C134.46 173.594 135.024 173.51 135.622 173.51ZM135.314 180.048C135.827 180.048 136.27 179.936 136.644 179.712C137.017 179.479 137.288 179.152 137.456 178.732V177.696H135.384C134.245 177.696 133.676 178.079 133.676 178.844C133.676 179.217 133.82 179.511 134.11 179.726C134.399 179.941 134.8 180.048 135.314 180.048ZM146.274 177.15C147.235 177.393 147.716 177.995 147.716 178.956C147.716 179.609 147.469 180.113 146.974 180.468C146.489 180.823 145.761 181 144.79 181H141.22V173.58H144.664C145.541 173.58 146.227 173.748 146.722 174.084C147.217 174.411 147.464 174.877 147.464 175.484C147.464 175.876 147.357 176.217 147.142 176.506C146.937 176.786 146.647 177.001 146.274 177.15ZM142.536 176.772H144.552C145.065 176.772 145.453 176.679 145.714 176.492C145.985 176.305 146.12 176.035 146.12 175.68C146.12 174.971 145.597 174.616 144.552 174.616H142.536V176.772ZM144.692 179.964C145.252 179.964 145.672 179.875 145.952 179.698C146.232 179.521 146.372 179.245 146.372 178.872C146.372 178.489 146.241 178.205 145.98 178.018C145.728 177.831 145.327 177.738 144.776 177.738H142.536V179.964H144.692ZM153.25 176.1C154.192 176.109 154.911 176.324 155.406 176.744C155.9 177.164 156.148 177.757 156.148 178.522C156.148 179.325 155.877 179.945 155.336 180.384C154.804 180.813 154.038 181.023 153.04 181.014L149.82 181V173.58H151.164V176.086L153.25 176.1ZM152.928 179.992C153.534 180.001 153.992 179.88 154.3 179.628C154.617 179.376 154.776 179.003 154.776 178.508C154.776 178.023 154.622 177.668 154.314 177.444C154.015 177.22 153.553 177.103 152.928 177.094L151.164 177.066V179.978L152.928 179.992ZM165.65 177.136C166.145 177.267 166.527 177.477 166.798 177.766C167.069 178.055 167.204 178.415 167.204 178.844C167.204 179.283 167.055 179.675 166.756 180.02C166.457 180.356 166.042 180.622 165.51 180.818C164.987 181.005 164.399 181.098 163.746 181.098C163.195 181.098 162.654 181.028 162.122 180.888C161.599 180.739 161.133 180.529 160.722 180.258L161.128 179.236C161.483 179.46 161.889 179.637 162.346 179.768C162.803 179.889 163.265 179.95 163.732 179.95C164.367 179.95 164.871 179.843 165.244 179.628C165.627 179.404 165.818 179.105 165.818 178.732C165.818 178.387 165.664 178.121 165.356 177.934C165.057 177.747 164.633 177.654 164.082 177.654H162.724V176.688H163.984C164.488 176.688 164.885 176.599 165.174 176.422C165.463 176.245 165.608 176.002 165.608 175.694C165.608 175.358 165.435 175.097 165.09 174.91C164.754 174.723 164.297 174.63 163.718 174.63C162.981 174.63 162.201 174.821 161.38 175.204L161.016 174.168C161.921 173.711 162.869 173.482 163.858 173.482C164.455 173.482 164.992 173.566 165.468 173.734C165.944 173.902 166.317 174.14 166.588 174.448C166.859 174.756 166.994 175.106 166.994 175.498C166.994 175.862 166.873 176.189 166.63 176.478C166.387 176.767 166.061 176.987 165.65 177.136ZM171.893 173.51C172.92 173.51 173.704 173.762 174.245 174.266C174.796 174.77 175.071 175.521 175.071 176.52V181H173.797V180.02C173.573 180.365 173.251 180.631 172.831 180.818C172.421 180.995 171.931 181.084 171.361 181.084C170.531 181.084 169.863 180.883 169.359 180.482C168.865 180.081 168.617 179.553 168.617 178.9C168.617 178.247 168.855 177.724 169.331 177.332C169.807 176.931 170.563 176.73 171.599 176.73H173.727V176.464C173.727 175.885 173.559 175.442 173.223 175.134C172.887 174.826 172.393 174.672 171.739 174.672C171.301 174.672 170.871 174.747 170.451 174.896C170.031 175.036 169.677 175.227 169.387 175.47L168.827 174.462C169.21 174.154 169.667 173.921 170.199 173.762C170.731 173.594 171.296 173.51 171.893 173.51ZM171.585 180.048C172.099 180.048 172.542 179.936 172.915 179.712C173.289 179.479 173.559 179.152 173.727 178.732V177.696H171.655C170.517 177.696 169.947 178.079 169.947 178.844C169.947 179.217 170.092 179.511 170.381 179.726C170.671 179.941 171.072 180.048 171.585 180.048ZM183.441 173.58V181H182.237V178.648H180.081H179.927L178.303 181H176.861L178.667 178.466C178.107 178.298 177.678 178.023 177.379 177.64C177.081 177.248 176.931 176.763 176.931 176.184C176.931 175.335 177.221 174.691 177.799 174.252C178.378 173.804 179.176 173.58 180.193 173.58H183.441ZM178.303 176.226C178.303 176.721 178.457 177.089 178.765 177.332C179.083 177.565 179.554 177.682 180.179 177.682H182.237V174.756H180.235C178.947 174.756 178.303 175.246 178.303 176.226ZM191.118 177.15C192.079 177.393 192.56 177.995 192.56 178.956C192.56 179.609 192.312 180.113 191.818 180.468C191.332 180.823 190.604 181 189.634 181H186.064V173.58H189.508C190.385 173.58 191.071 173.748 191.566 174.084C192.06 174.411 192.308 174.877 192.308 175.484C192.308 175.876 192.2 176.217 191.986 176.506C191.78 176.786 191.491 177.001 191.118 177.15ZM187.38 176.772H189.396C189.909 176.772 190.296 176.679 190.558 176.492C190.828 176.305 190.964 176.035 190.964 175.68C190.964 174.971 190.441 174.616 189.396 174.616H187.38V176.772ZM189.536 179.964C190.096 179.964 190.516 179.875 190.796 179.698C191.076 179.521 191.216 179.245 191.216 178.872C191.216 178.489 191.085 178.205 190.824 178.018C190.572 177.831 190.17 177.738 189.62 177.738H187.38V179.964H189.536ZM197.547 177.864H196.007V181H194.663V173.58H196.007V176.716H197.575L199.983 173.58H201.425L198.611 177.15L201.621 181H200.039L197.547 177.864ZM209.229 173.58L205.631 181.742C205.313 182.498 204.94 183.03 204.511 183.338C204.091 183.646 203.582 183.8 202.985 183.8C202.621 183.8 202.266 183.739 201.921 183.618C201.585 183.506 201.305 183.338 201.081 183.114L201.655 182.106C202.037 182.47 202.481 182.652 202.985 182.652C203.311 182.652 203.582 182.563 203.797 182.386C204.021 182.218 204.221 181.924 204.399 181.504L204.637 180.986L201.361 173.58H202.761L205.351 179.516L207.913 173.58H209.229ZM214.365 173.58H215.709V178.984L220.258 173.58H221.477V181H220.132V175.596L215.597 181H214.365V173.58ZM236.399 173.58V181H235.181V175.582L232.409 180.16H231.821L229.077 175.568V181H227.845V173.58H229.231L232.143 178.592L235.139 173.58H236.399ZM242.361 176.1C243.294 176.109 244.008 176.324 244.503 176.744C244.998 177.164 245.245 177.757 245.245 178.522C245.245 179.325 244.974 179.945 244.433 180.384C243.901 180.813 243.136 181.023 242.137 181.014L239.015 181V173.58H240.359V176.086L242.361 176.1ZM246.351 173.58H247.695V181H246.351V173.58ZM242.039 179.992C242.646 180.001 243.103 179.88 243.411 179.628C243.728 179.376 243.887 179.003 243.887 178.508C243.887 178.023 243.733 177.668 243.425 177.444C243.117 177.22 242.655 177.103 242.039 177.094L240.359 177.066V179.978L242.039 179.992ZM257.246 181.084C256.508 181.084 255.846 180.921 255.258 180.594C254.67 180.267 254.208 179.819 253.872 179.25C253.545 178.671 253.382 178.018 253.382 177.29C253.382 176.562 253.545 175.913 253.872 175.344C254.208 174.765 254.67 174.317 255.258 174C255.846 173.673 256.508 173.51 257.246 173.51C257.983 173.51 258.641 173.673 259.22 174C259.808 174.317 260.265 174.765 260.592 175.344C260.928 175.913 261.096 176.562 261.096 177.29C261.096 178.018 260.928 178.671 260.592 179.25C260.265 179.819 259.808 180.267 259.22 180.594C258.641 180.921 257.983 181.084 257.246 181.084ZM257.246 179.908C257.722 179.908 258.146 179.801 258.52 179.586C258.902 179.362 259.201 179.054 259.416 178.662C259.63 178.261 259.738 177.803 259.738 177.29C259.738 176.777 259.63 176.324 259.416 175.932C259.201 175.531 258.902 175.223 258.52 175.008C258.146 174.793 257.722 174.686 257.246 174.686C256.77 174.686 256.34 174.793 255.958 175.008C255.584 175.223 255.286 175.531 255.062 175.932C254.847 176.324 254.74 176.777 254.74 177.29C254.74 177.803 254.847 178.261 255.062 178.662C255.286 179.054 255.584 179.362 255.958 179.586C256.34 179.801 256.77 179.908 257.246 179.908ZM268.293 174.756H265.577V181H264.233V174.756H261.517V173.58H268.293V174.756ZM274.721 177.15C275.683 177.393 276.163 177.995 276.163 178.956C276.163 179.609 275.916 180.113 275.421 180.468C274.936 180.823 274.208 181 273.237 181H269.667V173.58H273.111C273.989 173.58 274.675 173.748 275.169 174.084C275.664 174.411 275.911 174.877 275.911 175.484C275.911 175.876 275.804 176.217 275.589 176.506C275.384 176.786 275.095 177.001 274.721 177.15ZM270.983 176.772H272.999C273.513 176.772 273.9 176.679 274.161 176.492C274.432 176.305 274.567 176.035 274.567 175.68C274.567 174.971 274.045 174.616 272.999 174.616H270.983V176.772ZM273.139 179.964C273.699 179.964 274.119 179.875 274.399 179.698C274.679 179.521 274.819 179.245 274.819 178.872C274.819 178.489 274.689 178.205 274.427 178.018C274.175 177.831 273.774 177.738 273.223 177.738H270.983V179.964H273.139ZM284.973 177.332C284.973 177.435 284.964 177.57 284.945 177.738H278.925C279.009 178.391 279.294 178.919 279.779 179.32C280.274 179.712 280.885 179.908 281.613 179.908C282.5 179.908 283.214 179.609 283.755 179.012L284.497 179.88C284.161 180.272 283.741 180.571 283.237 180.776C282.742 180.981 282.187 181.084 281.571 181.084C280.787 181.084 280.092 180.925 279.485 180.608C278.878 180.281 278.407 179.829 278.071 179.25C277.744 178.671 277.581 178.018 277.581 177.29C277.581 176.571 277.74 175.923 278.057 175.344C278.384 174.765 278.827 174.317 279.387 174C279.956 173.673 280.596 173.51 281.305 173.51C282.014 173.51 282.644 173.673 283.195 174C283.755 174.317 284.189 174.765 284.497 175.344C284.814 175.923 284.973 176.585 284.973 177.332ZM281.305 174.644C280.661 174.644 280.12 174.84 279.681 175.232C279.252 175.624 279 176.137 278.925 176.772H283.685C283.61 176.147 283.354 175.638 282.915 175.246C282.486 174.845 281.949 174.644 281.305 174.644ZM292.273 174.756H289.557V181H288.213V174.756H285.497V173.58H292.273V174.756ZM293.648 173.58H294.992V178.984L299.542 173.58H300.76V181H299.416V175.596L294.88 181H293.648V173.58ZM311.922 173.58V181H310.704V175.582L307.932 180.16H307.344L304.6 175.568V181H303.368V173.58H304.754L307.666 178.592L310.662 173.58H311.922Z" fill="#FFC700"/>
<path d="M115.104 155.288C113.36 155.288 111.784 154.912 110.376 154.16C108.984 153.408 107.888 152.376 107.088 151.064C106.304 149.736 105.912 148.248 105.912 146.6C105.912 144.952 106.304 143.472 107.088 142.16C107.888 140.832 108.984 139.792 110.376 139.04C111.784 138.288 113.36 137.912 115.104 137.912C116.848 137.912 118.416 138.288 119.808 139.04C121.2 139.792 122.296 140.832 123.096 142.16C123.896 143.472 124.296 144.952 124.296 146.6C124.296 148.248 123.896 149.736 123.096 151.064C122.296 152.376 121.2 153.408 119.808 154.16C118.416 154.912 116.848 155.288 115.104 155.288ZM115.104 151.976C116.096 151.976 116.992 151.752 117.792 151.304C118.592 150.84 119.216 150.2 119.664 149.384C120.128 148.568 120.36 147.64 120.36 146.6C120.36 145.56 120.128 144.632 119.664 143.816C119.216 143 118.592 142.368 117.792 141.92C116.992 141.456 116.096 141.224 115.104 141.224C114.112 141.224 113.216 141.456 112.416 141.92C111.616 142.368 110.984 143 110.52 143.816C110.072 144.632 109.848 145.56 109.848 146.6C109.848 147.64 110.072 148.568 110.52 149.384C110.984 150.2 111.616 150.84 112.416 151.304C113.216 151.752 114.112 151.976 115.104 151.976ZM133.147 155.192C131.771 155.192 130.531 154.912 129.427 154.352C128.339 153.776 127.483 152.984 126.859 151.976C126.251 150.968 125.947 149.824 125.947 148.544C125.947 147.264 126.251 146.12 126.859 145.112C127.483 144.104 128.339 143.32 129.427 142.76C130.531 142.184 131.771 141.896 133.147 141.896C134.507 141.896 135.691 142.184 136.699 142.76C137.723 143.32 138.467 144.128 138.931 145.184L136.027 146.744C135.355 145.56 134.387 144.968 133.123 144.968C132.147 144.968 131.339 145.288 130.699 145.928C130.059 146.568 129.739 147.44 129.739 148.544C129.739 149.648 130.059 150.52 130.699 151.16C131.339 151.8 132.147 152.12 133.123 152.12C134.403 152.12 135.371 151.528 136.027 150.344L138.931 151.928C138.467 152.952 137.723 153.752 136.699 154.328C135.691 154.904 134.507 155.192 133.147 155.192ZM152.007 145.16H147.639V155H143.919V145.16H139.551V142.088H152.007V145.16ZM159.019 141.896C161.019 141.896 162.555 142.376 163.627 143.336C164.699 144.28 165.235 145.712 165.235 147.632V155H161.731V153.392C161.027 154.592 159.715 155.192 157.795 155.192C156.803 155.192 155.939 155.024 155.203 154.688C154.483 154.352 153.931 153.888 153.547 153.296C153.163 152.704 152.971 152.032 152.971 151.28C152.971 150.08 153.419 149.136 154.315 148.448C155.227 147.76 156.627 147.416 158.515 147.416H161.491C161.491 146.6 161.243 145.976 160.747 145.544C160.251 145.096 159.507 144.872 158.515 144.872C157.827 144.872 157.147 144.984 156.475 145.208C155.819 145.416 155.259 145.704 154.795 146.072L153.451 143.456C154.155 142.96 154.995 142.576 155.971 142.304C156.963 142.032 157.979 141.896 159.019 141.896ZM158.731 152.672C159.371 152.672 159.939 152.528 160.435 152.24C160.931 151.936 161.283 151.496 161.491 150.92V149.6H158.923C157.387 149.6 156.619 150.104 156.619 151.112C156.619 151.592 156.803 151.976 157.171 152.264C157.555 152.536 158.075 152.672 158.731 152.672ZM180.872 142.088V155H177.128V145.16H173.048L172.928 147.44C172.864 149.136 172.704 150.544 172.448 151.664C172.192 152.784 171.776 153.664 171.2 154.304C170.624 154.944 169.824 155.264 168.8 155.264C168.256 155.264 167.608 155.168 166.856 154.976L167.048 151.904C167.304 151.936 167.488 151.952 167.6 151.952C168.16 151.952 168.576 151.752 168.848 151.352C169.136 150.936 169.328 150.416 169.424 149.792C169.52 149.152 169.592 148.312 169.64 147.272L169.832 142.088H180.872ZM184.472 142.088H188.192V149.768L194.48 142.088H197.912V155H194.192V147.32L187.928 155H184.472V142.088ZM207.655 155.192C206.279 155.192 205.039 154.912 203.935 154.352C202.847 153.776 201.991 152.984 201.367 151.976C200.759 150.968 200.455 149.824 200.455 148.544C200.455 147.264 200.759 146.12 201.367 145.112C201.991 144.104 202.847 143.32 203.935 142.76C205.039 142.184 206.279 141.896 207.655 141.896C209.015 141.896 210.199 142.184 211.207 142.76C212.231 143.32 212.975 144.128 213.439 145.184L210.535 146.744C209.863 145.56 208.895 144.968 207.631 144.968C206.655 144.968 205.847 145.288 205.207 145.928C204.567 146.568 204.247 147.44 204.247 148.544C204.247 149.648 204.567 150.52 205.207 151.16C205.847 151.8 206.655 152.12 207.631 152.12C208.911 152.12 209.879 151.528 210.535 150.344L213.439 151.928C212.975 152.952 212.231 153.752 211.207 154.328C210.199 154.904 209.015 155.192 207.655 155.192ZM222.698 146.216C224.378 146.232 225.666 146.616 226.562 147.368C227.458 148.104 227.906 149.152 227.906 150.512C227.906 151.936 227.402 153.048 226.394 153.848C225.402 154.632 224.002 155.024 222.194 155.024L215.714 155V142.088H219.434V146.216H222.698ZM221.858 152.36C222.578 152.376 223.13 152.224 223.514 151.904C223.898 151.584 224.09 151.104 224.09 150.464C224.09 149.84 223.898 149.384 223.514 149.096C223.146 148.808 222.594 148.656 221.858 148.64L219.434 148.616V152.36H221.858ZM246.906 148.256C248.426 148.768 249.186 149.792 249.186 151.328C249.186 152.496 248.746 153.4 247.866 154.04C246.986 154.68 245.674 155 243.93 155H237.042V142.088H243.642C245.258 142.088 246.522 142.384 247.434 142.976C248.346 143.552 248.802 144.368 248.802 145.424C248.802 146.064 248.634 146.632 248.298 147.128C247.978 147.608 247.514 147.984 246.906 148.256ZM240.474 147.392H243.306C244.618 147.392 245.274 146.928 245.274 146C245.274 145.088 244.618 144.632 243.306 144.632H240.474V147.392ZM243.618 152.456C244.994 152.456 245.682 151.984 245.682 151.04C245.682 150.544 245.522 150.184 245.202 149.96C244.882 149.72 244.378 149.6 243.69 149.6H240.474V152.456H243.618ZM258.02 155.192C256.66 155.192 255.436 154.912 254.348 154.352C253.276 153.776 252.436 152.984 251.828 151.976C251.22 150.968 250.916 149.824 250.916 148.544C250.916 147.264 251.22 146.12 251.828 145.112C252.436 144.104 253.276 143.32 254.348 142.76C255.436 142.184 256.66 141.896 258.02 141.896C259.38 141.896 260.596 142.184 261.668 142.76C262.74 143.32 263.58 144.104 264.188 145.112C264.796 146.12 265.1 147.264 265.1 148.544C265.1 149.824 264.796 150.968 264.188 151.976C263.58 152.984 262.74 153.776 261.668 154.352C260.596 154.912 259.38 155.192 258.02 155.192ZM258.02 152.12C258.98 152.12 259.764 151.8 260.372 151.16C260.996 150.504 261.308 149.632 261.308 148.544C261.308 147.456 260.996 146.592 260.372 145.952C259.764 145.296 258.98 144.968 258.02 144.968C257.06 144.968 256.268 145.296 255.644 145.952C255.02 146.592 254.708 147.456 254.708 148.544C254.708 149.632 255.02 150.504 255.644 151.16C256.268 151.8 257.06 152.12 258.02 152.12ZM280.515 142.088V155H276.771V145.16H271.395V155H267.675V142.088H280.515ZM291.713 141.896C292.913 141.896 294.001 142.176 294.977 142.736C295.969 143.28 296.745 144.056 297.305 145.064C297.865 146.056 298.145 147.216 298.145 148.544C298.145 149.872 297.865 151.04 297.305 152.048C296.745 153.04 295.969 153.816 294.977 154.376C294.001 154.92 292.913 155.192 291.713 155.192C290.065 155.192 288.769 154.672 287.825 153.632V159.656H284.081V142.088H287.657V143.576C288.585 142.456 289.937 141.896 291.713 141.896ZM291.065 152.12C292.025 152.12 292.809 151.8 293.417 151.16C294.041 150.504 294.353 149.632 294.353 148.544C294.353 147.456 294.041 146.592 293.417 145.952C292.809 145.296 292.025 144.968 291.065 144.968C290.105 144.968 289.313 145.296 288.689 145.952C288.081 146.592 287.777 147.456 287.777 148.544C287.777 149.632 288.081 150.504 288.689 151.16C289.313 151.8 290.105 152.12 291.065 152.12ZM306.817 155.192C305.457 155.192 304.233 154.912 303.145 154.352C302.073 153.776 301.233 152.984 300.625 151.976C300.017 150.968 299.713 149.824 299.713 148.544C299.713 147.264 300.017 146.12 300.625 145.112C301.233 144.104 302.073 143.32 303.145 142.76C304.233 142.184 305.457 141.896 306.817 141.896C308.177 141.896 309.393 142.184 310.465 142.76C311.537 143.32 312.377 144.104 312.985 145.112C313.593 146.12 313.897 147.264 313.897 148.544C313.897 149.824 313.593 150.968 312.985 151.976C312.377 152.984 311.537 153.776 310.465 154.352C309.393 154.912 308.177 155.192 306.817 155.192ZM306.817 152.12C307.777 152.12 308.561 151.8 309.169 151.16C309.793 150.504 310.105 149.632 310.105 148.544C310.105 147.456 309.793 146.592 309.169 145.952C308.561 145.296 307.777 144.968 306.817 144.968C305.857 144.968 305.065 145.296 304.441 145.952C303.817 146.592 303.505 147.456 303.505 148.544C303.505 149.632 303.817 150.504 304.441 151.16C305.065 151.8 305.857 152.12 306.817 152.12ZM322.616 155.192C321.24 155.192 320 154.912 318.896 154.352C317.808 153.776 316.952 152.984 316.328 151.976C315.72 150.968 315.416 149.824 315.416 148.544C315.416 147.264 315.72 146.12 316.328 145.112C316.952 144.104 317.808 143.32 318.896 142.76C320 142.184 321.24 141.896 322.616 141.896C323.976 141.896 325.16 142.184 326.168 142.76C327.192 143.32 327.936 144.128 328.4 145.184L325.496 146.744C324.824 145.56 323.856 144.968 322.592 144.968C321.616 144.968 320.808 145.288 320.168 145.928C319.528 146.568 319.208 147.44 319.208 148.544C319.208 149.648 319.528 150.52 320.168 151.16C320.808 151.8 321.616 152.12 322.592 152.12C323.872 152.12 324.84 151.528 325.496 150.344L328.4 151.928C327.936 152.952 327.192 153.752 326.168 154.328C325.16 154.904 323.976 155.192 322.616 155.192ZM337.467 146.216C339.147 146.232 340.419 146.608 341.283 147.344C342.147 148.08 342.579 149.136 342.579 150.512C342.579 151.952 342.091 153.064 341.115 153.848C340.139 154.632 338.755 155.024 336.963 155.024L330.675 155V142.088H334.395V146.216H337.467ZM343.971 142.088H347.691V155H343.971V142.088ZM336.627 152.36C337.347 152.376 337.899 152.224 338.283 151.904C338.667 151.584 338.859 151.104 338.859 150.464C338.859 149.84 338.667 149.384 338.283 149.096C337.915 148.808 337.363 148.656 336.627 148.64L334.395 148.616V152.36H336.627ZM355.341 149.168C355.341 148.336 355.525 147.648 355.893 147.104C356.277 146.56 356.829 145.96 357.549 145.304C358.077 144.824 358.461 144.424 358.701 144.104C358.957 143.768 359.085 143.392 359.085 142.976C359.085 142.384 358.845 141.92 358.365 141.584C357.901 141.232 357.277 141.056 356.493 141.056C355.741 141.056 355.069 141.216 354.477 141.536C353.901 141.84 353.413 142.272 353.013 142.832L350.109 141.128C350.781 140.104 351.685 139.312 352.821 138.752C353.973 138.192 355.333 137.912 356.901 137.912C358.741 137.912 360.213 138.304 361.317 139.088C362.437 139.872 362.997 140.96 362.997 142.352C362.997 143.008 362.885 143.584 362.661 144.08C362.453 144.576 362.189 145 361.869 145.352C361.565 145.688 361.165 146.08 360.669 146.528C360.077 147.056 359.645 147.504 359.373 147.872C359.101 148.224 358.965 148.656 358.965 149.168H355.341ZM357.165 155.192C356.509 155.192 355.957 154.984 355.509 154.568C355.077 154.136 354.861 153.616 354.861 153.008C354.861 152.4 355.077 151.896 355.509 151.496C355.941 151.08 356.493 150.872 357.165 150.872C357.837 150.872 358.389 151.08 358.821 151.496C359.253 151.896 359.469 152.4 359.469 153.008C359.469 153.616 359.245 154.136 358.797 154.568C358.365 154.984 357.821 155.192 357.165 155.192Z" fill="white"/>
<defs>
<filter id="filter0_b_11_29" x="-20" y="-20" width="600" height="680" filterUnits="userSpaceOnUse" color-interpolation-filters="sRGB">
<feFlood flood-opacity="0" result="BackgroundImageFix"/>
<feGaussianBlur in="BackgroundImageFix" stdDeviation="10"/>
<feComposite in2="SourceAlpha" operator="in" result="effect1_backgroundBlur_11_29"/>
<feBlend mode="normal" in="SourceGraphic" in2="effect1_backgroundBlur_11_29" result="shape"/>
</filter>
<linearGradient id="paint0_linear_11_29" x1="105" y1="447" x2="335" y2="497" gradientUnits="userSpaceOnUse">
<stop stop-color="#0499DD"/>
<stop offset="1" stop-color="#17C1BC"/>
</linearGradient>
</defs>
</svg>
