<svg width="30" height="30" viewBox="0 0 30 30" fill="none" xmlns="http://www.w3.org/2000/svg">
<path d="M19.4002 8.83994C22.8023 8.83994 25.5602 7.85497 25.5602 6.63994C25.5602 5.42492 22.8023 4.43994 19.4002 4.43994C15.9982 4.43994 13.2402 5.42492 13.2402 6.63994C13.2402 7.85497 15.9982 8.83994 19.4002 8.83994Z" stroke="#0499DD" stroke-width="0.6" stroke-miterlimit="10" stroke-linecap="round" stroke-linejoin="round"/>
<path d="M13.2402 7.08008C13.2402 7.48136 13.2402 9.3188 13.2402 9.72008C13.2402 10.9349 15.9973 11.9201 19.4002 11.9201C22.8032 11.9201 25.5602 10.9349 25.5602 9.72008C25.5602 9.3188 25.5602 7.48136 25.5602 7.08008" stroke="#0499DD" stroke-width="0.6" stroke-miterlimit="10" stroke-linecap="round" stroke-linejoin="round"/>
<path d="M16.5625 14.7531C17.4117 14.9106 18.3771 14.9999 19.4005 14.9999C22.8035 14.9999 25.5605 14.0148 25.5605 12.7999C25.5605 12.3986 25.5605 10.5612 25.5605 10.1599" stroke="#0499DD" stroke-width="0.6" stroke-miterlimit="10" stroke-linecap="round" stroke-linejoin="round"/>
<path d="M13.2402 10.1599C13.2402 10.5612 13.2402 12.0387 13.2402 12.0387" stroke="#0499DD" stroke-width="0.6" stroke-miterlimit="10" stroke-linecap="round" stroke-linejoin="round"/>
<path d="M16.7715 17.8701C17.5688 18.0047 18.4598 18.08 19.4005 18.08C22.8034 18.08 25.5605 17.0953 25.5605 15.88C25.5605 15.4787 25.5605 13.6413 25.5605 13.24" stroke="#0499DD" stroke-width="0.6" stroke-miterlimit="10" stroke-linecap="round" stroke-linejoin="round"/>
<path d="M16.7373 20.9445C17.5429 21.0826 18.4463 21.1601 19.4002 21.1601C22.8031 21.1601 25.5602 20.1753 25.5602 18.9601C25.5602 18.5588 25.5602 16.7213 25.5602 16.3201" stroke="#0499DD" stroke-width="0.6" stroke-miterlimit="10" stroke-linecap="round" stroke-linejoin="round"/>
<path d="M10.5995 16.3199C14.0015 16.3199 16.7595 15.3349 16.7595 14.1199C16.7595 12.9049 14.0015 11.9199 10.5995 11.9199C7.19738 11.9199 4.43945 12.9049 4.43945 14.1199C4.43945 15.3349 7.19738 16.3199 10.5995 16.3199Z" stroke="#0499DD" stroke-width="0.6" stroke-miterlimit="10" stroke-linecap="round" stroke-linejoin="round"/>
<path d="M4.43945 14.5601C4.43945 14.9613 4.43945 16.7988 4.43945 17.2001C4.43945 18.4153 7.19649 19.4001 10.5995 19.4001C14.0024 19.4001 16.7595 18.4153 16.7595 17.2001C16.7595 16.7988 16.7595 14.9613 16.7595 14.5601" stroke="#0499DD" stroke-width="0.6" stroke-miterlimit="10" stroke-linecap="round" stroke-linejoin="round"/>
<path d="M4.43945 17.6399C4.43945 18.0412 4.43945 19.8786 4.43945 20.2799C4.43945 21.4952 7.19649 22.4799 10.5995 22.4799C14.0024 22.4799 16.7595 21.4952 16.7595 20.2799C16.7595 19.8786 16.7595 18.0412 16.7595 17.6399" stroke="#0499DD" stroke-width="0.6" stroke-miterlimit="10" stroke-linecap="round" stroke-linejoin="round"/>
<path d="M4.43945 20.72C4.43945 21.1213 4.43945 22.9587 4.43945 23.36C4.43945 24.5753 7.19649 25.56 10.5995 25.56C14.0024 25.56 16.7595 24.5753 16.7595 23.36C16.7595 22.9587 16.7595 21.1213 16.7595 20.72" stroke="#0499DD" stroke-width="0.6" stroke-miterlimit="10" stroke-linecap="round" stroke-linejoin="round"/>
</svg>
